<?xml version="1.0" encoding="utf-8"?>
<!-- Generator: Adobe Illustrator 28.3.0, SVG Export Plug-In . SVG Version: 6.00 Build 0)  -->
<svg version="1.1" xmlns="http://www.w3.org/2000/svg" xmlns:xlink="http://www.w3.org/1999/xlink" x="0px" y="0px"
	 viewBox="0 0 512 512" style="enable-background:new 0 0 512 512;" xml:space="preserve">
<style type="text/css">
	.st0{fill:#330000;}
	.st1{fill:#FF9A00;}
</style>
<g id="レイヤー_2">
	<path class="st0" d="M399.9,512h-288c-61.6,0-112-50.4-112-112V112c0-61.6,50.4-112,112-112h288c61.6,0,112,50.4,112,112v288
		C511.9,461.6,461.5,512,399.9,512z"/>
</g>
<g id="レイヤー_1">
	<path class="st1" d="M281.6,341.3c19.7-3,37.5-14.9,48.6-32.9l116.8-192c9.1-15,6.8-34.8-5.5-47c-12.3-12.2-31-13.3-44.4-2.5
		L226,203.2c-17.3,13.8-27.6,35.4-27.7,58.4L281.6,341.3z M267.4,360.8l-83.8-80.1c-43.2,1.7-77.8,39.5-77.8,85.9c0,3,0.1,6,0.4,8.9
		c1.3,13.4-7.4,27.9-20.1,27.9h-3.5c-12.8,0-23.1,11-23.1,24.6c0,13.6,10.3,24.6,23.1,24.6h104.1c44.7,0,80.9-38.5,80.9-86
		C267.6,364.6,267.5,362.7,267.4,360.8L267.4,360.8z"/>
</g>
</svg>
