<?xml version="1.0" encoding="utf-8"?>
<!-- Generator: Adobe Illustrator 28.3.0, SVG Export Plug-In . SVG Version: 6.00 Build 0)  -->
<svg version="1.1" id="レイヤー_1" xmlns="http://www.w3.org/2000/svg" xmlns:xlink="http://www.w3.org/1999/xlink" x="0px"
	 y="0px" viewBox="0 0 512 512" style="enable-background:new 0 0 512 512;" xml:space="preserve">
<style type="text/css">
	.st0{fill:#00FF00;}
	.st1{fill:#FFFF00;}
	.st2{fill:#0000FF;}
	.st3{fill:#FF0000;}
	.st4{fill:#B9A700;}
</style>
<g id="XMLID_00000054954921244789153180000016325727508025304976_">
	<g>
		<circle class="st0" cx="384" cy="160" r="32"/>
		<circle class="st1" cx="256" cy="96" r="32"/>
		<circle class="st2" cx="128" cy="160" r="32"/>
		<circle class="st3" cx="96" cy="288" r="32"/>
		<path class="st4" d="M512,256c0,0.9,0,1.8,0,2.7c-0.4,36.5-33.6,61.3-70.1,61.3H344c-26.5,0-48,21.5-48,48c0,3.4,0.4,6.7,1,9.9
			c2.1,10.2,6.5,20,10.8,29.9c6.1,13.8,12.1,27.5,12.1,42c0,31.8-21.6,60.7-53.4,62c-3.5,0.1-7,0.2-10.6,0.2
			C114.6,512,0,397.4,0,256S114.6,0,256,0S512,114.6,512,256z M416,160c0-17.7-14.3-32-32-32s-32,14.3-32,32s14.3,32,32,32
			S416,177.7,416,160z M288,96c0-17.7-14.3-32-32-32s-32,14.3-32,32s14.3,32,32,32S288,113.7,288,96z M160,160c0-17.7-14.3-32-32-32
			s-32,14.3-32,32s14.3,32,32,32S160,177.7,160,160z M128,288c0-17.7-14.3-32-32-32s-32,14.3-32,32s14.3,32,32,32S128,305.7,128,288
			z"/>
	</g>
	<g>
	</g>
</g>
</svg>
