<?xml version="1.0" encoding="utf-8"?>
<!-- Generator: Adobe Illustrator 28.3.0, SVG Export Plug-In . SVG Version: 6.00 Build 0)  -->
<svg version="1.1" id="レイヤー_1" xmlns="http://www.w3.org/2000/svg" xmlns:xlink="http://www.w3.org/1999/xlink" x="0px"
	 y="0px" viewBox="0 0 256 256" style="enable-background:new 0 0 256 256;" xml:space="preserve">
<style type="text/css">
	.st0{fill:#CCCCCC;}
	.st1{stroke:#000000;stroke-width:5;stroke-miterlimit:10;}
</style>
<path class="st0" d="M206,256H50c-27.61,0-50-22.39-50-50V50C0,22.39,22.39,0,50,0h156c27.61,0,50,22.39,50,50v156
	C256,233.61,233.61,256,206,256z"/>
<g>
	<path d="M35.78,62.4c8.91-1.49,21.45-2.69,39.08-2.69c17.77,0,30.61,3.46,39.19,10.34c8.2,6.36,13.58,17.05,13.58,29.61
		c0,12.56-4.06,23.25-11.69,30.32c-9.89,9.29-24.64,13.59-41.59,13.59c-3.84,0-7.26-0.25-9.88-0.66v45.85H35.78V62.4z M64.47,120.48
		c2.41,0.55,5.39,0.77,9.62,0.77c15.38,0,24.87-7.78,24.87-20.76c0-11.79-8.06-18.8-22.66-18.8c-5.72,0-9.71,0.47-11.82,0.96V120.48
		z"/>
	<path class="st1" d="M162.82,188.77v-52.8h-9.3v-21h9.3v-2.55c0-8.1,3.15-18.9,10.05-25.05c6.75-6.15,15.75-7.8,22.35-7.8
		c4.95,0,8.7,0.45,12.3,1.2v21.6c-2.1-0.45-4.35-0.75-7.2-0.75c-6,0-9.45,4.05-9.45,9.45v3.9h13.8v21h-13.5v52.8H162.82z"/>
</g>
</svg>
