<?xml version="1.0" encoding="utf-8"?>
<!-- Generator: Adobe Illustrator 28.3.0, SVG Export Plug-In . SVG Version: 6.00 Build 0)  -->
<svg version="1.1" id="レイヤー_1" xmlns="http://www.w3.org/2000/svg" xmlns:xlink="http://www.w3.org/1999/xlink" x="0px"
	 y="0px" viewBox="0 0 256 256" style="enable-background:new 0 0 256 256;" xml:space="preserve">
<style type="text/css">
	.st0{fill:#CCCCCC;}
</style>
<path class="st0" d="M206,256H50c-27.61,0-50-22.39-50-50V50C0,22.39,22.39,0,50,0h156c27.61,0,50,22.39,50,50v156
	C256,233.61,233.61,256,206,256z"/>
<g>
	<path d="M42.46,62.4c8.91-1.49,21.45-2.69,39.09-2.69c17.77,0,30.61,3.46,39.19,10.34c8.2,6.36,13.58,17.05,13.58,29.61
		c0,12.56-4.06,23.25-11.69,30.32c-9.89,9.29-24.64,13.59-41.59,13.59c-3.84,0-7.26-0.25-9.88-0.66v45.85H42.46V62.4z M71.15,120.48
		c2.4,0.55,5.39,0.77,9.61,0.77c15.38,0,24.87-7.78,24.87-20.76c0-11.79-8.07-18.8-22.66-18.8c-5.72,0-9.71,0.47-11.82,0.96V120.48z
		"/>
	<path d="M164.14,188.77v-63.36h-11.16v-25.2h11.16v-3.06c0-9.72,3.78-22.68,12.06-30.06c8.1-7.38,18.9-9.36,26.82-9.36
		c5.94,0,10.44,0.54,14.76,1.44v25.92c-2.52-0.54-5.22-0.9-8.64-0.9c-7.2,0-11.34,4.86-11.34,11.34v4.68h16.56v25.2h-16.2v63.36
		H164.14z"/>
</g>
</svg>
